<?xml version="1.0" encoding="utf-8"?>
<svg xmlns="http://www.w3.org/2000/svg" xmlns:xlink="http://www.w3.org/1999/xlink" style="margin: auto; background: none; display: block; shape-rendering: auto;" width="257px" height="257px" viewBox="0 0 100 100" preserveAspectRatio="xMidYMid">
<g transform="rotate(0 50 50)">
  <rect x="49" y="25.5" rx="1" ry="2.5" width="2" height="5" fill="#b3b7e2">
    <animate attributeName="opacity" values="1;0" keyTimes="0;1" dur="0.9174311926605504s" begin="-0.8955875928352992s" repeatCount="indefinite"></animate>
  </rect>
</g><g transform="rotate(8.571428571428571 50 50)">
  <rect x="49" y="25.5" rx="1" ry="2.5" width="2" height="5" fill="#b3b7e2">
    <animate attributeName="opacity" values="1;0" keyTimes="0;1" dur="0.9174311926605504s" begin="-0.873743993010048s" repeatCount="indefinite"></animate>
  </rect>
</g><g transform="rotate(17.142857142857142 50 50)">
  <rect x="49" y="25.5" rx="1" ry="2.5" width="2" height="5" fill="#b3b7e2">
    <animate attributeName="opacity" values="1;0" keyTimes="0;1" dur="0.9174311926605504s" begin="-0.8519003931847968s" repeatCount="indefinite"></animate>
  </rect>
</g><g transform="rotate(25.714285714285715 50 50)">
  <rect x="49" y="25.5" rx="1" ry="2.5" width="2" height="5" fill="#b3b7e2">
    <animate attributeName="opacity" values="1;0" keyTimes="0;1" dur="0.9174311926605504s" begin="-0.8300567933595456s" repeatCount="indefinite"></animate>
  </rect>
</g><g transform="rotate(34.285714285714285 50 50)">
  <rect x="49" y="25.5" rx="1" ry="2.5" width="2" height="5" fill="#b3b7e2">
    <animate attributeName="opacity" values="1;0" keyTimes="0;1" dur="0.9174311926605504s" begin="-0.8082131935342944s" repeatCount="indefinite"></animate>
  </rect>
</g><g transform="rotate(42.857142857142854 50 50)">
  <rect x="49" y="25.5" rx="1" ry="2.5" width="2" height="5" fill="#b3b7e2">
    <animate attributeName="opacity" values="1;0" keyTimes="0;1" dur="0.9174311926605504s" begin="-0.7863695937090432s" repeatCount="indefinite"></animate>
  </rect>
</g><g transform="rotate(51.42857142857143 50 50)">
  <rect x="49" y="25.5" rx="1" ry="2.5" width="2" height="5" fill="#b3b7e2">
    <animate attributeName="opacity" values="1;0" keyTimes="0;1" dur="0.9174311926605504s" begin="-0.764525993883792s" repeatCount="indefinite"></animate>
  </rect>
</g><g transform="rotate(60 50 50)">
  <rect x="49" y="25.5" rx="1" ry="2.5" width="2" height="5" fill="#b3b7e2">
    <animate attributeName="opacity" values="1;0" keyTimes="0;1" dur="0.9174311926605504s" begin="-0.7426823940585409s" repeatCount="indefinite"></animate>
  </rect>
</g><g transform="rotate(68.57142857142857 50 50)">
  <rect x="49" y="25.5" rx="1" ry="2.5" width="2" height="5" fill="#b3b7e2">
    <animate attributeName="opacity" values="1;0" keyTimes="0;1" dur="0.9174311926605504s" begin="-0.7208387942332897s" repeatCount="indefinite"></animate>
  </rect>
</g><g transform="rotate(77.14285714285714 50 50)">
  <rect x="49" y="25.5" rx="1" ry="2.5" width="2" height="5" fill="#b3b7e2">
    <animate attributeName="opacity" values="1;0" keyTimes="0;1" dur="0.9174311926605504s" begin="-0.6989951944080385s" repeatCount="indefinite"></animate>
  </rect>
</g><g transform="rotate(85.71428571428571 50 50)">
  <rect x="49" y="25.5" rx="1" ry="2.5" width="2" height="5" fill="#b3b7e2">
    <animate attributeName="opacity" values="1;0" keyTimes="0;1" dur="0.9174311926605504s" begin="-0.6771515945827872s" repeatCount="indefinite"></animate>
  </rect>
</g><g transform="rotate(94.28571428571429 50 50)">
  <rect x="49" y="25.5" rx="1" ry="2.5" width="2" height="5" fill="#b3b7e2">
    <animate attributeName="opacity" values="1;0" keyTimes="0;1" dur="0.9174311926605504s" begin="-0.655307994757536s" repeatCount="indefinite"></animate>
  </rect>
</g><g transform="rotate(102.85714285714286 50 50)">
  <rect x="49" y="25.5" rx="1" ry="2.5" width="2" height="5" fill="#b3b7e2">
    <animate attributeName="opacity" values="1;0" keyTimes="0;1" dur="0.9174311926605504s" begin="-0.6334643949322848s" repeatCount="indefinite"></animate>
  </rect>
</g><g transform="rotate(111.42857142857143 50 50)">
  <rect x="49" y="25.5" rx="1" ry="2.5" width="2" height="5" fill="#b3b7e2">
    <animate attributeName="opacity" values="1;0" keyTimes="0;1" dur="0.9174311926605504s" begin="-0.6116207951070336s" repeatCount="indefinite"></animate>
  </rect>
</g><g transform="rotate(120 50 50)">
  <rect x="49" y="25.5" rx="1" ry="2.5" width="2" height="5" fill="#b3b7e2">
    <animate attributeName="opacity" values="1;0" keyTimes="0;1" dur="0.9174311926605504s" begin="-0.5897771952817824s" repeatCount="indefinite"></animate>
  </rect>
</g><g transform="rotate(128.57142857142858 50 50)">
  <rect x="49" y="25.5" rx="1" ry="2.5" width="2" height="5" fill="#b3b7e2">
    <animate attributeName="opacity" values="1;0" keyTimes="0;1" dur="0.9174311926605504s" begin="-0.5679335954565312s" repeatCount="indefinite"></animate>
  </rect>
</g><g transform="rotate(137.14285714285714 50 50)">
  <rect x="49" y="25.5" rx="1" ry="2.5" width="2" height="5" fill="#b3b7e2">
    <animate attributeName="opacity" values="1;0" keyTimes="0;1" dur="0.9174311926605504s" begin="-0.54608999563128s" repeatCount="indefinite"></animate>
  </rect>
</g><g transform="rotate(145.71428571428572 50 50)">
  <rect x="49" y="25.5" rx="1" ry="2.5" width="2" height="5" fill="#b3b7e2">
    <animate attributeName="opacity" values="1;0" keyTimes="0;1" dur="0.9174311926605504s" begin="-0.5242463958060288s" repeatCount="indefinite"></animate>
  </rect>
</g><g transform="rotate(154.28571428571428 50 50)">
  <rect x="49" y="25.5" rx="1" ry="2.5" width="2" height="5" fill="#b3b7e2">
    <animate attributeName="opacity" values="1;0" keyTimes="0;1" dur="0.9174311926605504s" begin="-0.5024027959807776s" repeatCount="indefinite"></animate>
  </rect>
</g><g transform="rotate(162.85714285714286 50 50)">
  <rect x="49" y="25.5" rx="1" ry="2.5" width="2" height="5" fill="#b3b7e2">
    <animate attributeName="opacity" values="1;0" keyTimes="0;1" dur="0.9174311926605504s" begin="-0.4805591961555264s" repeatCount="indefinite"></animate>
  </rect>
</g><g transform="rotate(171.42857142857142 50 50)">
  <rect x="49" y="25.5" rx="1" ry="2.5" width="2" height="5" fill="#b3b7e2">
    <animate attributeName="opacity" values="1;0" keyTimes="0;1" dur="0.9174311926605504s" begin="-0.4587155963302752s" repeatCount="indefinite"></animate>
  </rect>
</g><g transform="rotate(180 50 50)">
  <rect x="49" y="25.5" rx="1" ry="2.5" width="2" height="5" fill="#b3b7e2">
    <animate attributeName="opacity" values="1;0" keyTimes="0;1" dur="0.9174311926605504s" begin="-0.436871996505024s" repeatCount="indefinite"></animate>
  </rect>
</g><g transform="rotate(188.57142857142858 50 50)">
  <rect x="49" y="25.5" rx="1" ry="2.5" width="2" height="5" fill="#b3b7e2">
    <animate attributeName="opacity" values="1;0" keyTimes="0;1" dur="0.9174311926605504s" begin="-0.4150283966797728s" repeatCount="indefinite"></animate>
  </rect>
</g><g transform="rotate(197.14285714285714 50 50)">
  <rect x="49" y="25.5" rx="1" ry="2.5" width="2" height="5" fill="#b3b7e2">
    <animate attributeName="opacity" values="1;0" keyTimes="0;1" dur="0.9174311926605504s" begin="-0.3931847968545216s" repeatCount="indefinite"></animate>
  </rect>
</g><g transform="rotate(205.71428571428572 50 50)">
  <rect x="49" y="25.5" rx="1" ry="2.5" width="2" height="5" fill="#b3b7e2">
    <animate attributeName="opacity" values="1;0" keyTimes="0;1" dur="0.9174311926605504s" begin="-0.37134119702927043s" repeatCount="indefinite"></animate>
  </rect>
</g><g transform="rotate(214.28571428571428 50 50)">
  <rect x="49" y="25.5" rx="1" ry="2.5" width="2" height="5" fill="#b3b7e2">
    <animate attributeName="opacity" values="1;0" keyTimes="0;1" dur="0.9174311926605504s" begin="-0.34949759720401924s" repeatCount="indefinite"></animate>
  </rect>
</g><g transform="rotate(222.85714285714286 50 50)">
  <rect x="49" y="25.5" rx="1" ry="2.5" width="2" height="5" fill="#b3b7e2">
    <animate attributeName="opacity" values="1;0" keyTimes="0;1" dur="0.9174311926605504s" begin="-0.327653997378768s" repeatCount="indefinite"></animate>
  </rect>
</g><g transform="rotate(231.42857142857142 50 50)">
  <rect x="49" y="25.5" rx="1" ry="2.5" width="2" height="5" fill="#b3b7e2">
    <animate attributeName="opacity" values="1;0" keyTimes="0;1" dur="0.9174311926605504s" begin="-0.3058103975535168s" repeatCount="indefinite"></animate>
  </rect>
</g><g transform="rotate(240 50 50)">
  <rect x="49" y="25.5" rx="1" ry="2.5" width="2" height="5" fill="#b3b7e2">
    <animate attributeName="opacity" values="1;0" keyTimes="0;1" dur="0.9174311926605504s" begin="-0.2839667977282656s" repeatCount="indefinite"></animate>
  </rect>
</g><g transform="rotate(248.57142857142858 50 50)">
  <rect x="49" y="25.5" rx="1" ry="2.5" width="2" height="5" fill="#b3b7e2">
    <animate attributeName="opacity" values="1;0" keyTimes="0;1" dur="0.9174311926605504s" begin="-0.2621231979030144s" repeatCount="indefinite"></animate>
  </rect>
</g><g transform="rotate(257.14285714285717 50 50)">
  <rect x="49" y="25.5" rx="1" ry="2.5" width="2" height="5" fill="#b3b7e2">
    <animate attributeName="opacity" values="1;0" keyTimes="0;1" dur="0.9174311926605504s" begin="-0.2402795980777632s" repeatCount="indefinite"></animate>
  </rect>
</g><g transform="rotate(265.7142857142857 50 50)">
  <rect x="49" y="25.5" rx="1" ry="2.5" width="2" height="5" fill="#b3b7e2">
    <animate attributeName="opacity" values="1;0" keyTimes="0;1" dur="0.9174311926605504s" begin="-0.218435998252512s" repeatCount="indefinite"></animate>
  </rect>
</g><g transform="rotate(274.2857142857143 50 50)">
  <rect x="49" y="25.5" rx="1" ry="2.5" width="2" height="5" fill="#b3b7e2">
    <animate attributeName="opacity" values="1;0" keyTimes="0;1" dur="0.9174311926605504s" begin="-0.1965923984272608s" repeatCount="indefinite"></animate>
  </rect>
</g><g transform="rotate(282.85714285714283 50 50)">
  <rect x="49" y="25.5" rx="1" ry="2.5" width="2" height="5" fill="#b3b7e2">
    <animate attributeName="opacity" values="1;0" keyTimes="0;1" dur="0.9174311926605504s" begin="-0.17474879860200962s" repeatCount="indefinite"></animate>
  </rect>
</g><g transform="rotate(291.42857142857144 50 50)">
  <rect x="49" y="25.5" rx="1" ry="2.5" width="2" height="5" fill="#b3b7e2">
    <animate attributeName="opacity" values="1;0" keyTimes="0;1" dur="0.9174311926605504s" begin="-0.1529051987767584s" repeatCount="indefinite"></animate>
  </rect>
</g><g transform="rotate(300 50 50)">
  <rect x="49" y="25.5" rx="1" ry="2.5" width="2" height="5" fill="#b3b7e2">
    <animate attributeName="opacity" values="1;0" keyTimes="0;1" dur="0.9174311926605504s" begin="-0.1310615989515072s" repeatCount="indefinite"></animate>
  </rect>
</g><g transform="rotate(308.57142857142856 50 50)">
  <rect x="49" y="25.5" rx="1" ry="2.5" width="2" height="5" fill="#b3b7e2">
    <animate attributeName="opacity" values="1;0" keyTimes="0;1" dur="0.9174311926605504s" begin="-0.109217999126256s" repeatCount="indefinite"></animate>
  </rect>
</g><g transform="rotate(317.14285714285717 50 50)">
  <rect x="49" y="25.5" rx="1" ry="2.5" width="2" height="5" fill="#b3b7e2">
    <animate attributeName="opacity" values="1;0" keyTimes="0;1" dur="0.9174311926605504s" begin="-0.08737439930100481s" repeatCount="indefinite"></animate>
  </rect>
</g><g transform="rotate(325.7142857142857 50 50)">
  <rect x="49" y="25.5" rx="1" ry="2.5" width="2" height="5" fill="#b3b7e2">
    <animate attributeName="opacity" values="1;0" keyTimes="0;1" dur="0.9174311926605504s" begin="-0.0655307994757536s" repeatCount="indefinite"></animate>
  </rect>
</g><g transform="rotate(334.2857142857143 50 50)">
  <rect x="49" y="25.5" rx="1" ry="2.5" width="2" height="5" fill="#b3b7e2">
    <animate attributeName="opacity" values="1;0" keyTimes="0;1" dur="0.9174311926605504s" begin="-0.043687199650502405s" repeatCount="indefinite"></animate>
  </rect>
</g><g transform="rotate(342.85714285714283 50 50)">
  <rect x="49" y="25.5" rx="1" ry="2.5" width="2" height="5" fill="#b3b7e2">
    <animate attributeName="opacity" values="1;0" keyTimes="0;1" dur="0.9174311926605504s" begin="-0.021843599825251202s" repeatCount="indefinite"></animate>
  </rect>
</g><g transform="rotate(351.42857142857144 50 50)">
  <rect x="49" y="25.5" rx="1" ry="2.5" width="2" height="5" fill="#b3b7e2">
    <animate attributeName="opacity" values="1;0" keyTimes="0;1" dur="0.9174311926605504s" begin="0s" repeatCount="indefinite"></animate>
  </rect>
</g>
<!-- [ldio] generated by https://loading.io/ --></svg>